<svg preserveAspectRatio="none" width="100%" height="100%" overflow="visible" style="display: block;" viewBox="0 0 16 16" fill="none" xmlns="http://www.w3.org/2000/svg">
<g id="ri:scroll-to-bottom-fill">
<path id="Vector" d="M8.5723 1.12188H7.42637C6.08379 1.12188 5.36383 1.31461 4.71187 1.67721C4.06781 2.03205 3.54125 2.58015 3.20063 3.2503C2.85199 3.92765 2.66667 4.67642 2.66667 6.07272V10.037C2.66667 11.4333 2.85199 12.1821 3.20063 12.8594C3.5415 13.53 4.06855 14.0784 4.71321 14.4332C5.36516 14.7951 6.08512 14.9885 7.4277 14.9885H8.57296C9.91555 14.9885 10.6355 14.7951 11.2868 14.4332C11.9314 14.0784 12.4585 13.53 12.7994 12.8594C13.1473 12.1821 13.3333 11.4333 13.3333 10.037V6.07203C13.3333 4.67572 13.1473 3.92696 12.7994 3.24892C12.4583 2.57882 11.9313 2.03095 11.2868 1.67651C10.6348 1.31461 9.91421 1.12188 8.5723 1.12188ZM7.33304 7.36156V3.89507H8.66629V7.36156H7.33304ZM5.17184 9.27368L6.11445 8.29336L8.00033 10.254L9.88555 8.29336L10.8282 9.27368L8.00033 12.2153L5.17184 9.27368Z" fill="var(--fill-0, #8AFFA7)"/>
</g>
</svg>
