<svg preserveAspectRatio="none" width="100%" height="100%" overflow="visible" style="display: block;" viewBox="0 0 14 14" fill="none" xmlns="http://www.w3.org/2000/svg">
<g id="Group">
<path id="Vector" d="M1 7C1 8.5913 1.63214 10.1174 2.75736 11.2426C3.88258 12.3679 5.4087 13 7 13C8.5913 13 10.1174 12.3679 11.2426 11.2426C12.3679 10.1174 13 8.5913 13 7C13 5.4087 12.3679 3.88258 11.2426 2.75736C10.1174 1.63214 8.5913 1 7 1" stroke="var(--stroke-0, #9364FF)" stroke-width="2" stroke-linecap="round" stroke-linejoin="round"/>
<path id="Vector_2" d="M10.3333 7C10.3333 6.34073 10.1378 5.69626 9.77157 5.1481C9.40529 4.59994 8.8847 4.17269 8.27561 3.9204C7.66652 3.66811 6.9963 3.6021 6.3497 3.73072C5.7031 3.85933 5.10915 4.1768 4.64298 4.64298C4.1768 5.10915 3.85933 5.7031 3.73072 6.3497C3.6021 6.9963 3.66811 7.66652 3.9204 8.27561C4.17269 8.8847 4.59994 9.40529 5.1481 9.77157C5.69626 10.1378 6.34073 10.3333 7 10.3333" stroke="var(--stroke-0, #9364FF)" stroke-width="2" stroke-linecap="round" stroke-linejoin="round"/>
</g>
</svg>
