<svg preserveAspectRatio="none" width="100%" height="100%" overflow="visible" style="display: block;" viewBox="0 0 17 17" fill="none" xmlns="http://www.w3.org/2000/svg">
<g id="teenyicons:button-solid" clip-path="url(#clip0_35_9181)">
<path id="Vector" d="M4.53333 6.8C3.6316 6.8 2.76679 6.44179 2.12917 5.80416C1.49155 5.16654 1.13333 4.30174 1.13333 3.4C1.13333 2.49826 1.49155 1.63346 2.12917 0.995837C2.76679 0.358213 3.6316 0 4.53333 0L12.4667 0C13.3684 0 14.2332 0.358213 14.8708 0.995837C15.5085 1.63346 15.8667 2.49826 15.8667 3.4C15.8667 4.30174 15.5085 5.16654 14.8708 5.80416C14.2332 6.44179 13.3684 6.8 12.4667 6.8H10.2V3.96667C10.2 3.21522 9.90149 2.49455 9.37014 1.9632C8.83878 1.43184 8.11811 1.13333 7.36667 1.13333C6.61522 1.13333 5.89455 1.43184 5.3632 1.9632C4.83184 2.49455 4.53333 3.21522 4.53333 3.96667V6.8Z" fill="var(--fill-0, #FF5454)"/>
<path id="Vector_2" d="M7.36667 2.26667C6.9158 2.26667 6.4834 2.44577 6.16459 2.76458C5.84577 3.0834 5.66667 3.5158 5.66667 3.96667V9.12333C5.02669 9.25397 4.45151 9.6017 4.03846 10.1077C3.62541 10.6137 3.39987 11.2468 3.4 11.9C3.4 13.2526 3.93732 14.5498 4.89376 15.5062C5.85019 16.4627 7.1474 17 8.5 17H9.06667C10.5696 17 12.0109 16.403 13.0736 15.3403C14.1363 14.2776 14.7333 12.8362 14.7333 11.3333V10.3666C14.7333 9.72126 14.477 9.10235 14.0206 8.64602C13.5643 8.1897 12.9454 7.93333 12.3001 7.93333H9.06667V3.96667C9.06667 3.5158 8.88756 3.0834 8.56875 2.76458C8.24994 2.44577 7.81754 2.26667 7.36667 2.26667Z" fill="var(--fill-0, #FF5454)"/>
</g>
<defs>
<clipPath id="clip0_35_9181">
<rect width="17" height="17" fill="white"/>
</clipPath>
</defs>
</svg>
