<svg preserveAspectRatio="none" width="100%" height="100%" overflow="visible" style="display: block;" viewBox="0 0 16 16" fill="none" xmlns="http://www.w3.org/2000/svg">
<g id="solar:cursor-bold">
<path id="Vector" d="M11.0493 12.8L8.424 10.1747L7.622 10.976C6.802 11.7973 6.39133 12.2073 5.95 12.1107C5.50867 12.014 5.308 11.4687 4.90667 10.38L3.56867 6.74667C2.768 4.574 2.36667 3.488 2.92667 2.928C3.48667 2.368 4.57333 2.768 6.74667 3.56933L10.38 4.90667C11.4687 5.308 12.0133 5.50867 12.1107 5.95C12.208 6.39133 11.7973 6.80133 10.976 7.622L10.1747 8.424L12.8 11.0493C13.072 11.3213 13.208 11.4573 13.2707 11.6093C13.354 11.8113 13.354 12.038 13.2707 12.2407C13.208 12.392 13.072 12.528 12.8 12.8C12.528 13.072 12.392 13.208 12.24 13.2707C12.0378 13.3542 11.8108 13.3542 11.6087 13.2707C11.4573 13.208 11.322 13.072 11.0493 12.8Z" fill="var(--fill-0, #6AE6FF)"/>
</g>
</svg>
