<svg preserveAspectRatio="none" width="100%" height="100%" overflow="visible" style="display: block;" viewBox="0 0 16 16" fill="none" xmlns="http://www.w3.org/2000/svg">
<g id="SVG">
<path id="Vector" d="M2.66667 9.33333C2.40917 9.33421 2.17418 9.18672 2.06303 8.95444C1.95188 8.72216 1.98444 8.44664 2.14667 8.24667L8.74667 1.44667C8.84863 1.32897 9.01851 1.29756 9.15582 1.371C9.29314 1.44445 9.3613 1.60319 9.32 1.75333L8.04 5.76667C7.96339 5.97172 7.99231 6.20131 8.11739 6.38095C8.24248 6.56059 8.44777 6.66738 8.66667 6.66667H13.3333C13.5908 6.66579 13.8258 6.81329 13.937 7.04556C14.0481 7.27784 14.0156 7.55336 13.8533 7.75333L7.25333 14.5533C7.15137 14.671 6.9815 14.7024 6.84418 14.629C6.70686 14.5555 6.6387 14.3968 6.68 14.2467L7.96 10.2333C8.03661 10.0283 8.00769 9.79869 7.88261 9.61905C7.75752 9.43941 7.55223 9.33262 7.33333 9.33333H2.66667" stroke="var(--stroke-0, white)" stroke-opacity="0.35" stroke-width="1.33333" stroke-linecap="round" stroke-linejoin="round"/>
</g>
</svg>
