<svg preserveAspectRatio="none" width="100%" height="100%" overflow="visible" style="display: block;" viewBox="0 0 16.6693 16.6693" fill="none" xmlns="http://www.w3.org/2000/svg">
<g id="Group">
<g id="Vector">
</g>
<path id="Vector_2" d="M13.0007 8.336C13.0007 8.94884 12.88 9.55567 12.6454 10.1219C12.4109 10.688 12.0672 11.2025 11.6338 11.6358C11.2005 12.0692 10.686 12.4129 10.1199 12.6474C9.55367 12.882 8.94684 13.0027 8.334 13.0027C7.72117 13.0027 7.11433 12.882 6.54814 12.6474C5.98196 12.4129 5.46751 12.0692 5.03417 11.6358C4.60083 11.2025 4.25708 10.688 4.02256 10.1219C3.78804 9.55567 3.66733 8.94884 3.66733 8.336C3.66733 7.09832 4.159 5.91134 5.03417 5.03617C5.90934 4.161 7.09632 3.66933 8.334 3.66933C9.57168 3.66933 10.7587 4.161 11.6338 5.03617C12.509 5.91134 13.0007 7.09832 13.0007 8.336ZM13.522 13.52L13.52 13.522L13.518 13.52L13.52 13.518L13.522 13.52ZM15.6693 8.33333V8.336H15.6667V8.33333H15.6693ZM13.5207 3.14733L13.522 3.14933L13.52 3.15067L13.518 3.14933L13.5207 3.14733ZM8.33333 1H8.336V1.00267H8.33333V1ZM3.15067 3.14933L3.14867 3.15067L3.14733 3.14933L3.14867 3.14733L3.15067 3.14933ZM1.00267 8.33333V8.336H1V8.33333H1.00267ZM3.14867 13.518L3.15067 13.52L3.14867 13.522L3.14733 13.52L3.14867 13.518ZM8.33333 15.6667H8.336V15.6693H8.33333V15.6667Z" fill="var(--fill-0, white)" stroke="var(--stroke-0, white)" stroke-width="2" stroke-linecap="square"/>
</g>
</svg>
