<svg preserveAspectRatio="none" width="100%" height="100%" overflow="visible" style="display: block;" viewBox="0 0 16 16" fill="none" xmlns="http://www.w3.org/2000/svg">
<g id="SVG">
<path id="Vector" d="M8 4.66667V14" stroke="var(--stroke-0, white)" stroke-opacity="0.35" stroke-width="1.33333" stroke-linecap="round" stroke-linejoin="round"/>
<path id="Vector_2" d="M2 12C1.63206 12 1.33333 11.7013 1.33333 11.3333V2.66667C1.33333 2.29872 1.63206 2 2 2H5.33333C6.80511 2 8 3.19489 8 4.66667C8 3.19489 9.19489 2 10.6667 2H14C14.3679 2 14.6667 2.29872 14.6667 2.66667V11.3333C14.6667 11.7013 14.3679 12 14 12H10C8.89617 12 8 12.8962 8 14C8 12.8962 7.10383 12 6 12H2" stroke="var(--stroke-0, white)" stroke-opacity="0.35" stroke-width="1.33333" stroke-linecap="round" stroke-linejoin="round"/>
</g>
</svg>
