<svg preserveAspectRatio="none" width="100%" height="100%" overflow="visible" style="display: block;" viewBox="0 0 21 22" fill="none" xmlns="http://www.w3.org/2000/svg">
<g id="mdi:react">
<path id="Vector" d="M10.5 9.2675C11.4013 9.2675 12.1362 10.0375 12.1362 11C12.1362 11.9167 11.4013 12.6958 10.5 12.6958C9.59875 12.6958 8.86375 11.9167 8.86375 11C8.86375 10.0375 9.59875 9.2675 10.5 9.2675ZM6.44875 18.3333C7 18.6817 8.2075 18.15 9.59875 16.775C9.14375 16.2342 8.6975 15.6475 8.2775 15.0333C7.57244 14.9621 6.87147 14.852 6.1775 14.7033C5.73125 16.665 5.8975 18.0125 6.44875 18.3333ZM7.07 13.0717L6.81625 12.6042C6.72 12.87 6.62375 13.1358 6.5625 13.3925C6.79875 13.4475 7.06125 13.4933 7.3325 13.5392L7.07 13.0717ZM12.7925 12.375L13.5013 11L12.7925 9.625C12.53 9.13917 12.25 8.70833 11.9963 8.2775C11.5238 8.25 11.025 8.25 10.5 8.25C9.975 8.25 9.47625 8.25 9.00375 8.2775C8.75 8.70833 8.47 9.13917 8.2075 9.625L7.49875 11L8.2075 12.375C8.47 12.8608 8.75 13.2917 9.00375 13.7225C9.47625 13.75 9.975 13.75 10.5 13.75C11.025 13.75 11.5238 13.75 11.9963 13.7225C12.25 13.2917 12.53 12.8608 12.7925 12.375ZM10.5 6.215C10.3338 6.41667 10.1587 6.6275 9.98375 6.875H11.0163C10.8413 6.6275 10.6662 6.41667 10.5 6.215ZM10.5 15.785C10.6662 15.5833 10.8413 15.3725 11.0163 15.125H9.98375C10.1587 15.3725 10.3338 15.5833 10.5 15.785ZM14.5425 3.66667C14 3.31833 12.7925 3.85 11.4012 5.225C11.8562 5.76583 12.3025 6.3525 12.7225 6.96667C13.44 7.04 14.1488 7.15 14.8225 7.29667C15.2688 5.335 15.1025 3.9875 14.5425 3.66667ZM13.93 8.92833L14.1837 9.39583C14.28 9.13 14.3762 8.86417 14.4375 8.6075C14.2012 8.5525 13.9387 8.50667 13.6675 8.46083L13.93 8.92833ZM15.1988 2.46583C16.485 3.23583 16.625 5.26167 16.0825 7.62667C18.305 8.31417 19.9062 9.45083 19.9062 11C19.9062 12.5492 18.305 13.6858 16.0825 14.3733C16.625 16.7383 16.485 18.7642 15.1988 19.5342C13.9213 20.3042 12.18 19.4242 10.5 17.7467C8.82 19.4242 7.07875 20.3042 5.7925 19.5342C4.515 18.7642 4.375 16.7383 4.9175 14.3733C2.695 13.6858 1.09375 12.5492 1.09375 11C1.09375 9.45083 2.695 8.31417 4.9175 7.62667C4.375 5.26167 4.515 3.23583 5.7925 2.46583C7.07875 1.69583 8.82 2.57583 10.5 4.25333C12.18 2.57583 13.9213 1.69583 15.1988 2.46583ZM14.945 11C15.2425 11.6875 15.505 12.375 15.7237 13.0717C17.5612 12.4942 18.5938 11.6692 18.5938 11C18.5938 10.3308 17.5612 9.50583 15.7237 8.92833C15.505 9.625 15.2425 10.3125 14.945 11ZM6.055 11C5.7575 10.3125 5.495 9.625 5.27625 8.92833C3.43875 9.50583 2.40625 10.3308 2.40625 11C2.40625 11.6692 3.43875 12.4942 5.27625 13.0717C5.495 12.375 5.7575 11.6875 6.055 11ZM13.93 13.0717L13.6675 13.5392C13.9387 13.4933 14.2012 13.4475 14.4375 13.3925C14.3762 13.1358 14.28 12.87 14.1837 12.6042L13.93 13.0717ZM11.4012 16.775C12.7925 18.15 14 18.6817 14.5425 18.3333C15.1025 18.0125 15.2688 16.665 14.8225 14.7033C14.1488 14.85 13.44 14.96 12.7225 15.0333C12.3025 15.6475 11.8562 16.2342 11.4012 16.775ZM7.07 8.92833L7.3325 8.46083C7.06125 8.50667 6.79875 8.5525 6.5625 8.6075C6.62375 8.86417 6.72 9.13 6.81625 9.39583L7.07 8.92833ZM9.59875 5.225C8.2075 3.85 7 3.31833 6.44875 3.66667C5.8975 3.9875 5.73125 5.335 6.1775 7.29667C6.87147 7.14803 7.57244 7.03787 8.2775 6.96667C8.6975 6.3525 9.14375 5.76583 9.59875 5.225Z" fill="var(--fill-0, white)"/>
</g>
</svg>
