<svg preserveAspectRatio="none" width="100%" height="100%" overflow="visible" style="display: block;" viewBox="0 0 19 19" fill="none" xmlns="http://www.w3.org/2000/svg">
<g id="SVG">
<path id="Vector" d="M4.75 5.65831V14.7389C4.75 14.8668 4.78413 14.9923 4.84865 15.1017C4.91317 15.2109 5.00563 15.3 5.11593 15.3589C5.22622 15.4179 5.35012 15.4445 5.47411 15.436C5.5981 15.4273 5.71741 15.3838 5.81905 15.3102L9.5 11.806L13.181 15.3102C13.2825 15.3838 13.4019 15.4273 13.5259 15.436C13.6498 15.4445 13.7738 15.4179 13.884 15.3589C13.9943 15.3 14.0868 15.2109 14.1513 15.1017C14.2159 14.9923 14.25 14.8668 14.25 14.7389V5.65831C14.25 5.10246 14.0355 4.56938 13.6538 4.17634C13.272 3.7833 12.7541 3.5625 12.2143 3.5625H6.78572C6.24581 3.5625 5.72801 3.7833 5.34624 4.17634C4.96447 4.56938 4.75 5.10246 4.75 5.65831V5.65831" stroke="var(--stroke-0, #817F7F)" stroke-width="1.48438" stroke-linecap="round" stroke-linejoin="round"/>
</g>
</svg>
