<svg preserveAspectRatio="none" width="100%" height="100%" overflow="visible" style="display: block;" viewBox="0 0 29 29" fill="none" xmlns="http://www.w3.org/2000/svg">
<g id="material-symbols:grid-view-rounded">
<path id="Vector" d="M6.04167 13.2917C5.37708 13.2917 4.80836 13.0552 4.3355 12.5824C3.86264 12.1095 3.62581 11.5404 3.625 10.875V6.04167C3.625 5.37708 3.86183 4.80836 4.3355 4.3355C4.80917 3.86264 5.37789 3.62581 6.04167 3.625H10.875C11.5396 3.625 12.1087 3.86183 12.5824 4.3355C13.056 4.80917 13.2925 5.37789 13.2917 6.04167V10.875C13.2917 11.5396 13.0552 12.1087 12.5824 12.5824C12.1095 13.056 11.5404 13.2925 10.875 13.2917H6.04167ZM6.04167 25.375C5.37708 25.375 4.80836 25.1386 4.3355 24.6657C3.86264 24.1928 3.62581 23.6237 3.625 22.9583V18.125C3.625 17.4604 3.86183 16.8917 4.3355 16.4188C4.80917 15.946 5.37789 15.7091 6.04167 15.7083H10.875C11.5396 15.7083 12.1087 15.9452 12.5824 16.4188C13.056 16.8925 13.2925 17.4612 13.2917 18.125V22.9583C13.2917 23.6229 13.0552 24.192 12.5824 24.6657C12.1095 25.1394 11.5404 25.3758 10.875 25.375H6.04167ZM18.125 13.2917C17.4604 13.2917 16.8917 13.0552 16.4188 12.5824C15.946 12.1095 15.7091 11.5404 15.7083 10.875V6.04167C15.7083 5.37708 15.9452 4.80836 16.4188 4.3355C16.8925 3.86264 17.4612 3.62581 18.125 3.625H22.9583C23.6229 3.625 24.192 3.86183 24.6657 4.3355C25.1394 4.80917 25.3758 5.37789 25.375 6.04167V10.875C25.375 11.5396 25.1386 12.1087 24.6657 12.5824C24.1928 13.056 23.6237 13.2925 22.9583 13.2917H18.125ZM18.125 25.375C17.4604 25.375 16.8917 25.1386 16.4188 24.6657C15.946 24.1928 15.7091 23.6237 15.7083 22.9583V18.125C15.7083 17.4604 15.9452 16.8917 16.4188 16.4188C16.8925 15.946 17.4612 15.7091 18.125 15.7083H22.9583C23.6229 15.7083 24.192 15.9452 24.6657 16.4188C25.1394 16.8925 25.3758 17.4612 25.375 18.125V22.9583C25.375 23.6229 25.1386 24.192 24.6657 24.6657C24.1928 25.1394 23.6237 25.3758 22.9583 25.375H18.125Z" fill="var(--fill-0, white)"/>
</g>
</svg>
