<svg preserveAspectRatio="none" width="100%" height="100%" overflow="visible" style="display: block;" viewBox="0 0 30 30" fill="none" xmlns="http://www.w3.org/2000/svg">
<g id="entypo:list">
<path id="Vector" d="M21.6 13.5H12.9C12.072 13.5 12 14.1705 12 15C12 15.8295 12.072 16.5 12.9 16.5H21.6C22.428 16.5 22.5 15.8295 22.5 15C22.5 14.1705 22.428 13.5 21.6 13.5ZM24.6 21H12.9C12.072 21 12 21.6705 12 22.5C12 23.3295 12.072 24 12.9 24H24.6C25.428 24 25.5 23.3295 25.5 22.5C25.5 21.6705 25.428 21 24.6 21ZM12.9 9H24.6C25.428 9 25.5 8.3295 25.5 7.5C25.5 6.6705 25.428 6 24.6 6H12.9C12.072 6 12 6.6705 12 7.5C12 8.3295 12.072 9 12.9 9ZM8.1 13.5H5.4C4.572 13.5 4.5 14.1705 4.5 15C4.5 15.8295 4.572 16.5 5.4 16.5H8.1C8.928 16.5 9 15.8295 9 15C9 14.1705 8.928 13.5 8.1 13.5ZM8.1 21H5.4C4.572 21 4.5 21.6705 4.5 22.5C4.5 23.3295 4.572 24 5.4 24H8.1C8.928 24 9 23.3295 9 22.5C9 21.6705 8.928 21 8.1 21ZM8.1 6H5.4C4.572 6 4.5 6.6705 4.5 7.5C4.5 8.3295 4.572 9 5.4 9H8.1C8.928 9 9 8.3295 9 7.5C9 6.6705 8.928 6 8.1 6Z" fill="var(--fill-0, white)"/>
</g>
</svg>
